<svg viewBox="0 0 244 107" fill="none" xmlns="http://www.w3.org/2000/svg">
  <path
    d="M43.0312 105.258C38.3906 105.258 34.0312 104.391 29.9531 102.656C25.875 100.875 22.2891 98.4609 19.1953 95.4141C16.1484 92.3203 13.7344 88.7344 11.9531 84.6562C10.2188 80.5781 9.35156 76.2188 9.35156 71.5781V49.2188H0V30.0938H9.35156V0H28.4766V30.0938H57.5859V49.2188H28.4766V71.5781C28.4766 73.5938 28.8516 75.4922 29.6016 77.2734C30.3516 79.0078 31.3828 80.5312 32.6953 81.8438C34.0078 83.1562 35.5547 84.2109 37.3359 85.0078C39.1172 85.7578 41.0156 86.1328 43.0312 86.1328H57.5859V105.258H43.0312Z"
    fill="#793AAF"
  />
  <path
    d="M163.477 78.0469C163.477 81.9844 162.727 85.7109 161.227 89.2266C159.727 92.6953 157.664 95.7188 155.039 98.2969C152.461 100.875 149.414 102.914 145.898 104.414C142.43 105.914 138.703 106.664 134.719 106.664C131.156 106.664 127.734 106.055 124.453 104.836C121.172 103.57 118.195 101.742 115.523 99.3516C112.898 101.742 109.945 103.57 106.664 104.836C103.43 106.055 100.008 106.664 96.3984 106.664C92.4141 106.664 88.6875 105.914 85.2188 104.414C81.75 102.914 78.7031 100.875 76.0781 98.2969C73.5 95.7188 71.4609 92.6953 69.9609 89.2266C68.4609 85.7109 67.7109 81.9844 67.7109 78.0469V30.0938H86.9062V78.0469C86.9062 79.3594 87.1406 80.6016 87.6094 81.7734C88.125 82.8984 88.8047 83.9062 89.6484 84.7969C90.5391 85.6406 91.5469 86.3203 92.6719 86.8359C93.8438 87.3047 95.0859 87.5391 96.3984 87.5391C97.7109 87.5391 98.9531 87.3047 100.125 86.8359C101.297 86.3203 102.328 85.6406 103.219 84.7969C104.109 83.9062 104.789 82.8984 105.258 81.7734C105.773 80.6016 106.031 79.3594 106.031 78.0469V30.0938H125.156V78.0469C125.156 79.3594 125.414 80.6016 125.93 81.7734C126.445 82.8984 127.125 83.9062 127.969 84.7969C128.859 85.6406 129.867 86.3203 130.992 86.8359C132.164 87.3047 133.406 87.5391 134.719 87.5391C136.031 87.5391 137.273 87.3047 138.445 86.8359C139.617 86.3203 140.625 85.6406 141.469 84.7969C142.359 83.9062 143.062 82.8984 143.578 81.7734C144.094 80.6016 144.352 79.3594 144.352 78.0469V30.0938H163.477V78.0469Z"
    fill="#793AAF"
  />
  <path
    d="M207.352 86.8359C208.102 87.0703 208.852 87.2344 209.602 87.3281C210.352 87.375 211.102 87.3984 211.852 87.3984C213.727 87.3984 215.531 87.1406 217.266 86.625C219 86.1094 220.617 85.3828 222.117 84.4453C223.664 83.4609 225.023 82.2891 226.195 80.9297C227.414 79.5234 228.398 77.9766 229.148 76.2891L243.211 90.4219C241.43 92.9531 239.367 95.2266 237.023 97.2422C234.727 99.2578 232.219 100.969 229.5 102.375C226.828 103.781 223.992 104.836 220.992 105.539C218.039 106.289 214.992 106.664 211.852 106.664C206.555 106.664 201.562 105.68 196.875 103.711C192.234 101.742 188.156 99 184.641 95.4844C181.172 91.9688 178.43 87.7969 176.414 82.9688C174.398 78.0938 173.391 72.75 173.391 66.9375C173.391 60.9844 174.398 55.5469 176.414 50.625C178.43 45.7031 181.172 41.5078 184.641 38.0391C188.156 34.5703 192.234 31.875 196.875 29.9531C201.562 28.0312 206.555 27.0703 211.852 27.0703C214.992 27.0703 218.062 27.4453 221.062 28.1953C224.062 28.9453 226.898 30.0234 229.57 31.4297C232.289 32.8359 234.82 34.5703 237.164 36.6328C239.508 38.6484 241.57 40.9219 243.352 43.4531L207.352 86.8359ZM217.195 47.25C216.305 46.9219 215.414 46.7109 214.523 46.6172C213.68 46.5234 212.789 46.4766 211.852 46.4766C209.227 46.4766 206.742 46.9688 204.398 47.9531C202.102 48.8906 200.086 50.25 198.352 52.0312C196.664 53.8125 195.328 55.9688 194.344 58.5C193.359 60.9844 192.867 63.7969 192.867 66.9375C192.867 67.6406 192.891 68.4375 192.938 69.3281C193.031 70.2188 193.148 71.1328 193.289 72.0703C193.477 72.9609 193.688 73.8281 193.922 74.6719C194.156 75.5156 194.461 76.2656 194.836 76.9219L217.195 47.25Z"
    fill="#793AAF"
  />
</svg>
